
<svg xmlns="http://www.w3.org/2000/svg" width="134" height="150" viewBox="0 0 134 150">
  <g fill="none" fill-rule="evenodd" transform="translate(17 21)">
    <path fill="#d18f43ff" d="M64.9998,23.0004 C68.3128,23.0004 70.9998,25.6864 70.9998,29.0004 L70.9998,102.0004 C70.9998,105.3134 68.3128,108.0004 64.9998,108.0004 L5.9998,108.0004 C2.6868,108.0004 -0.0002,105.3134 -0.0002,102.0004 L-0.0002,29.0004 C-0.0002,25.6864 2.6868,23.0004 5.9998,23.0004 L64.9998,23.0004 Z"/>
    <polygon fill="#d18f43ff" points="0 101.003 4.999 101.003 4.999 91.003 0 91.003"/>
    <polygon fill="#d18f43ff" points="15 101 25 101 25 91 15 91"/>
    <polygon fill="#d18f43ff" points="35 101 45 101 45 91 35 91"/>
    <polygon fill="#d18f43ff" points="55 101 65 101 65 91 55 91"/>
    <polygon fill="#d18f43ff" points="0 81.003 4.999 81.003 4.999 71.003 0 71.003"/>
    <polygon fill="#d18f43ff" points="15 81 25 81 25 71 15 71"/>
    <polygon fill="#d18f43ff" points="35 81 45 81 45 71 35 71"/>
    <polygon fill="#d18f43ff" points="55 81 65 81 65 71 55 71"/>
    <polygon fill="#d18f43ff" points="0 61.003 4.999 61.003 4.999 51.003 0 51.003"/>
    <polygon fill="#d18f43ff" points="15 61 25 61 25 51 15 51"/>
    <polygon fill="#d18f43ff" points="35 61 45 61 45 51 35 51"/>
    <polygon fill="#d18f43ff" points="55 61 65 61 65 51 55 51"/>
    <polygon fill="#d18f43ff" points="0 41 4.999 41 4.999 31.003 0 31.003"/>
    <polygon fill="#d18f43ff" points="24.999 33.114 24.999 41.001 14.999 41.001 14.999 31.004 22.079 31.004"/>
    <path fill="#d18f43ff" d="M44.9988,33.8334 L44.9988,41.0004 L34.9988,41.0004 L34.9988,31.0034 L39.0488,31.0034 L40.8888,34.1134 C41.4778,35.1234 42.8188,35.4034 43.7788,34.7134 L44.9988,33.8334 Z"/>
    <polygon fill="#d18f43ff" points="55 41 65 41 65 31 55 31"/>
    <polygon fill="#e08721ff" points="5 101 15 101 15 91 5 91"/>
    <polygon fill="#d18f43ff" points="5 91 15 91 15 81 5 81"/>
    <path fill="#d18f43ff" d="M14.9988,101.0033 L14.9988,108.0003 L5.9988,108.0003 C5.6588,108.0003 5.3188,107.9743 4.9988,107.9133 L4.9988,101.0033 L14.9988,101.0033 Z"/>
    <polygon fill="#e08721ff" points="5 81 15 81 15 71 5 71"/>
    <polygon fill="#d18f43ff" points="5 71 15 71 15 61 5 61"/>
    <polygon fill="#e08721ff" points="5 61 15 61 15 51 5 51"/>
    <polygon fill="#d18f43ff" points="5 51 15 51 15 41 5 41"/>
    <polygon fill="#e08721ff" points="5 41 15 41 15 31 5 31"/>
    <path fill="#d18f43ff" d="M14.9988,25.8939 L14.9988,31.0029 L4.9988,31.0029 L4.9988,23.0929 C5.3188,23.0339 5.6588,23.0029 5.9988,23.0029 L10.9988,23.0029 L14.9988,25.8939 Z"/>
    <polygon fill="#e08721ff" points="25 101 35 101 35 91 25 91"/>
    <polygon fill="#d18f43ff" points="25 91 35 91 35 81 25 81"/>
    <polygon fill="#d18f43ff" points="24.999 108 34.999 108 34.999 101.003 24.999 101.003"/>
    <polygon fill="#e08721ff" points="25 81 35 81 35 71 25 71"/>
    <polygon fill="#d18f43ff" points="25 71 35 71 35 61 25 61"/>
    <polygon fill="#e08721ff" points="25 61 35 61 35 51 25 51"/>
    <polygon fill="#d18f43ff" points="25 51 35 51 35 41 25 41"/>
    <path fill="#e08721ff" d="M34.9988,31.0033 L34.9988,41.0003 L24.9988,41.0003 L24.9988,33.1133 L27.2188,34.7133 C28.1788,35.4033 29.5188,35.1233 30.1188,34.1133 L31.9588,31.0033 L34.9988,31.0033 Z"/>
    <polygon fill="#d18f43ff" points="34.999 25.854 34.999 31.003 31.959 31.003"/>
    <polygon fill="#e08721ff" points="45 101 55 101 55 91 45 91"/>
    <polygon fill="#d18f43ff" points="45 91 55 91 55 81 45 81"/>
    <polygon fill="#d18f43ff" points="44.999 108 54.999 108 54.999 101.003 44.999 101.003"/>
    <polygon fill="#e08721ff" points="45 81 55 81 55 71 45 71"/>
    <polygon fill="#d18f43ff" points="45 71 55 71 55 61 45 61"/>
    <polygon fill="#e08721ff" points="45 61 55 61 55 51 45 51"/>
    <polygon fill="#d18f43ff" points="45 51 55 51 55 41 45 41"/>
    <polygon fill="#e08721ff" points="54.999 31.003 54.999 41 44.999 41 44.999 33.833 48.919 31.003"/>
    <polygon fill="#d18f43ff" points="54.999 26.614 54.999 31.004 48.919 31.004"/>
    <polygon fill="#e08721ff" points="65 101.003 70.999 101.003 70.999 91.003 65 91.003"/>
    <polygon fill="#d18f43ff" points="65 91.003 70.999 91.003 70.999 81.003 65 81.003"/>
    <path fill="#d18f43ff" d="M70.9988,101.0033 L70.9988,102.0033 C70.9988,105.3143 68.3198,108.0003 64.9998,108.0003 L64.9998,101.0033 L70.9988,101.0033 Z"/>
    <polygon fill="#e08721ff" points="65 81.003 70.999 81.003 70.999 71.003 65 71.003"/>
    <polygon fill="#d18f43ff" points="65 71.003 70.999 71.003 70.999 61.003 65 61.003"/>
    <polygon fill="#e08721ff" points="65 61.003 70.999 61.003 70.999 51.003 65 51.003"/>
    <polygon fill="#d18f43ff" points="65 51.003 70.999 51.003 70.999 41.003 65 41.003"/>
    <polygon fill="#e08721ff" points="65 41 70.999 41 70.999 31.003 65 31.003"/>
    <path fill="#d18f43ff" d="M70.9988,29.0033 L70.9988,31.0033 L64.9998,31.0033 L64.9998,23.0033 C68.3198,23.0033 70.9988,25.6843 70.9988,29.0033"/>
    <polygon fill="#2983D1" points="19 27.107 52 27.107 52 15.001 19 15.001"/>
    <polygon fill="#89CFF8" points="32 108 39 108 39 25 32 25"/>
    <path fill="#459FED" d="M36.5603,45.4389 C36.8313,45.7099 36.9993,46.0849 36.9993,46.5009 C36.9993,46.9149 36.8313,47.2899 36.5603,47.5609 C36.2893,47.8329 35.9143,48.0009 35.4993,48.0009 C35.0853,48.0009 34.7103,47.8329 34.4393,47.5609 C34.1673,47.2899 33.9993,46.9149 33.9993,46.5009 C33.9993,46.0849 34.1673,45.7099 34.4393,45.4389 L35.0413,44.0539 C35.2153,43.6539 35.7843,43.6539 35.9583,44.0539 L36.5603,45.4389 Z"/>
    <path fill="#4EB7F5" d="M35.4998,48.0004 C34.6718,48.0004 33.9998,47.3284 33.9998,46.5004 C33.9998,45.6714 34.6718,45.0004 35.4998,45.0004 C36.3288,45.0004 36.9998,45.6714 36.9998,46.5004 C36.9998,47.3284 36.3288,48.0004 35.4998,48.0004"/>
    <path fill="#459FED" d="M36.5603,62.4389 C36.8313,62.7099 36.9993,63.0849 36.9993,63.5009 C36.9993,63.9149 36.8313,64.2899 36.5603,64.5609 C36.2893,64.8329 35.9143,65.0009 35.4993,65.0009 C35.0853,65.0009 34.7103,64.8329 34.4393,64.5609 C34.1673,64.2899 33.9993,63.9149 33.9993,63.5009 C33.9993,63.0849 34.1673,62.7099 34.4393,62.4389 L35.0413,61.0539 C35.2153,60.6539 35.7843,60.6539 35.9583,61.0539 L36.5603,62.4389 Z"/>
    <path fill="#4EB7F5" d="M35.4998,65.0004 C34.6718,65.0004 33.9998,64.3284 33.9998,63.5004 C33.9998,62.6714 34.6718,62.0004 35.4998,62.0004 C36.3288,62.0004 36.9998,62.6714 36.9998,63.5004 C36.9998,64.3284 36.3288,65.0004 35.4998,65.0004"/>
    <path fill="#459FED" d="M36.5603,79.4389 C36.8313,79.7099 36.9993,80.0849 36.9993,80.5009 C36.9993,80.9149 36.8313,81.2899 36.5603,81.5609 C36.2893,81.8329 35.9143,82.0009 35.4993,82.0009 C35.0853,82.0009 34.7103,81.8329 34.4393,81.5609 C34.1673,81.2899 33.9993,80.9149 33.9993,80.5009 C33.9993,80.0849 34.1673,79.7099 34.4393,79.4389 L35.0413,78.0539 C35.2153,77.6539 35.7843,77.6539 35.9583,78.0539 L36.5603,79.4389 Z"/>
    <path fill="#4EB7F5" d="M35.4998,82.0004 C34.6718,82.0004 33.9998,81.3284 33.9998,80.5004 C33.9998,79.6714 34.6718,79.0004 35.4998,79.0004 C36.3288,79.0004 36.9998,79.6714 36.9998,80.5004 C36.9998,81.3284 36.3288,82.0004 35.4998,82.0004"/>
    <path fill="#459FED" d="M36.5603,96.4389 C36.8313,96.7099 36.9993,97.0849 36.9993,97.5009 C36.9993,97.9149 36.8313,98.2899 36.5603,98.5609 C36.2893,98.8329 35.9143,99.0009 35.4993,99.0009 C35.0853,99.0009 34.7103,98.8329 34.4393,98.5609 C34.1673,98.2899 33.9993,97.9149 33.9993,97.5009 C33.9993,97.0849 34.1673,96.7099 34.4393,96.4389 L35.0413,95.0539 C35.2153,94.6539 35.7843,94.6539 35.9583,95.0539 L36.5603,96.4389 Z"/>
    <path fill="#4EB7F5" d="M35.4998,99.0004 C34.6718,99.0004 33.9998,98.3284 33.9998,97.5004 C33.9998,96.6714 34.6718,96.0004 35.4998,96.0004 C36.3288,96.0004 36.9998,96.6714 36.9998,97.5004 C36.9998,98.3284 36.3288,99.0004 35.4998,99.0004"/>
    <path fill="#459FED" d="M51.9998 15.0004L35.4998 25.0004 40.8848 34.1124C41.4828 35.1254 42.8228 35.4054 43.7768 34.7164L59.9998 23.0004 51.9998 15.0004zM18.9998 15.0004L35.4998 25.0004 30.1148 34.1124C29.5168 35.1254 28.1768 35.4054 27.2228 34.7164L10.9998 23.0004 18.9998 15.0004z"/>
    <path fill="#459FED" fill-opacity=".6" d="M70.9998,91.0004 L30.9998,91.0004 C27.6868,91.0004 24.9998,88.3134 24.9998,85.0004 L24.9998,15.0004 L70.9998,15.0004 L70.9998,91.0004 Z"/>
    <path fill="#FFF" d="M20.5486,35.4535 C20.1286,36.3635 19.2286,36.8935 18.2886,36.8935 C17.9386,36.8935 17.5696,36.8135 17.2286,36.6535 C16.3196,36.2335 15.7886,35.3235 15.7886,34.3835 C15.7886,34.0335 15.8596,33.6735 16.0186,33.3335 C16.6096,32.0835 18.0886,31.5435 19.3486,32.1235 C20.2586,32.5535 20.7886,33.4435 20.7886,34.3835 C20.7886,34.7435 20.7086,35.1035 20.5486,35.4535 M25.4586,37.6335 L22.1586,29.3435 C21.7586,28.3635 20.6686,27.8535 19.6686,28.1835 L11.1886,30.9835 C10.6686,31.1535 10.2386,31.5335 10.0086,32.0335 L3.1886,46.6635 C2.7186,47.6635 3.1586,48.8535 4.1586,49.3135 L15.9386,54.8135 C16.9386,55.2835 18.1286,54.8435 18.5986,53.8435 L25.4186,39.2245 C25.6496,38.7245 25.6686,38.1435 25.4586,37.6335"/>
    <path fill="#D3EDFF" d="M18.7097,33.9857 C18.6387,33.9857 18.5667,33.9707 18.4987,33.9387 C18.2477,33.8227 18.1397,33.5247 18.2567,33.2747 L25.0187,18.7737 C25.1357,18.5207 25.4337,18.4157 25.6827,18.5317 C25.9337,18.6477 26.0417,18.9457 25.9247,19.1957 L19.1627,33.6967 C19.0777,33.8797 18.8967,33.9857 18.7097,33.9857"/>
    <polygon fill="#A3ABB0" points="13.736 40.451 13.174 45.606 13.193 45.614 16.699 41.833 18.702 42.766 15.684 49.237 14.352 48.616 16.491 44.03 16.472 44.022 12.749 47.868 11.651 47.356 12.182 42.077 12.165 42.069 10.048 46.608 8.715 45.987 11.733 39.516"/>
    <path fill="#C4E7FC" d="M88.9998,8.0004 L93.9998,8.0004 C97.3128,8.0004 99.9998,10.6864 99.9998,14.0004 L99.9998,81.0004 C99.9998,84.3134 97.3128,87.0004 93.9998,87.0004 L34.9998,87.0004 C31.6868,87.0004 28.9998,84.3134 28.9998,81.0004 L28.9998,14.0004 C28.9998,10.6864 31.6868,8.0004 34.9998,8.0004 L39.9998,8.0004 L88.9998,8.0004 Z"/>
    <polygon fill="#75C7F7" points="48 10 81 10 81 0 48 0"/>
    <polygon fill="#D8EFFD" points="61 87 68 87 68 10 61 10"/>
    <path fill="#9DD7F9" d="M80.9998.0004L64.4998 10.0004 69.8848 19.1124C70.4828 20.1254 71.8228 20.4054 72.7768 19.7164L88.9998 8.0004 80.9998.0004zM47.9998.0004L64.4998 10.0004 59.1148 19.1124C58.5168 20.1254 57.1768 20.4054 56.2228 19.7164L39.9998 8.0004 47.9998.0004zM78.8806 47.1947L84.8806 51.2447C85.5576 51.7017 86.4426 51.7017 87.1186 51.2447L93.1186 47.1947C93.6696 46.8227 93.9996 46.2017 93.9996 45.5377L93.9996 35.0007C93.9996 33.8957 93.1046 33.0007 91.9996 33.0007L79.9996 33.0007C78.8956 33.0007 77.9996 33.8957 77.9996 35.0007L77.9996 45.5377C77.9996 46.2017 78.3296 46.8227 78.8806 47.1947"/>
    <path fill="#4EB7F5" d="M65.5603,24.4389 C65.8313,24.7099 65.9993,25.0849 65.9993,25.5009 C65.9993,25.9149 65.8313,26.2899 65.5603,26.5609 C65.2893,26.8329 64.9143,27.0009 64.4993,27.0009 C64.0853,27.0009 63.7103,26.8329 63.4393,26.5609 C63.1673,26.2899 62.9993,25.9149 62.9993,25.5009 C62.9993,25.0849 63.1673,24.7099 63.4393,24.4389 L64.0413,23.0539 C64.2153,22.6539 64.7843,22.6539 64.9583,23.0539 L65.5603,24.4389 Z"/>
    <path fill="#75C7F7" d="M64.4998,27.0004 C63.6718,27.0004 62.9998,26.3284 62.9998,25.5004 C62.9998,24.6714 63.6718,24.0004 64.4998,24.0004 C65.3288,24.0004 65.9998,24.6714 65.9998,25.5004 C65.9998,26.3284 65.3288,27.0004 64.4998,27.0004"/>
    <path fill="#4EB7F5" d="M65.5603,41.4389 C65.8313,41.7099 65.9993,42.0849 65.9993,42.5009 C65.9993,42.9149 65.8313,43.2899 65.5603,43.5609 C65.2893,43.8329 64.9143,44.0009 64.4993,44.0009 C64.0853,44.0009 63.7103,43.8329 63.4393,43.5609 C63.1673,43.2899 62.9993,42.9149 62.9993,42.5009 C62.9993,42.0849 63.1673,41.7099 63.4393,41.4389 L64.0413,40.0539 C64.2153,39.6539 64.7843,39.6539 64.9583,40.0539 L65.5603,41.4389 Z"/>
    <path fill="#75C7F7" d="M64.4998,44.0004 C63.6718,44.0004 62.9998,43.3284 62.9998,42.5004 C62.9998,41.6714 63.6718,41.0004 64.4998,41.0004 C65.3288,41.0004 65.9998,41.6714 65.9998,42.5004 C65.9998,43.3284 65.3288,44.0004 64.4998,44.0004"/>
    <path fill="#4EB7F5" d="M65.5603,58.4389 C65.8313,58.7099 65.9993,59.0849 65.9993,59.5009 C65.9993,59.9149 65.8313,60.2899 65.5603,60.5609 C65.2893,60.8329 64.9143,61.0009 64.4993,61.0009 C64.0853,61.0009 63.7103,60.8329 63.4393,60.5609 C63.1673,60.2899 62.9993,59.9149 62.9993,59.5009 C62.9993,59.0849 63.1673,58.7099 63.4393,58.4389 L64.0413,57.0539 C64.2153,56.6539 64.7843,56.6539 64.9583,57.0539 L65.5603,58.4389 Z"/>
    <path fill="#75C7F7" d="M64.4998,61.0004 C63.6718,61.0004 62.9998,60.3284 62.9998,59.5004 C62.9998,58.6714 63.6718,58.0004 64.4998,58.0004 C65.3288,58.0004 65.9998,58.6714 65.9998,59.5004 C65.9998,60.3284 65.3288,61.0004 64.4998,61.0004"/>
    <path fill="#4EB7F5" d="M65.5603,75.4389 C65.8313,75.7099 65.9993,76.0849 65.9993,76.5009 C65.9993,76.9149 65.8313,77.2899 65.5603,77.5609 C65.2893,77.8329 64.9143,78.0009 64.4993,78.0009 C64.0853,78.0009 63.7103,77.8329 63.4393,77.5609 C63.1673,77.2899 62.9993,76.9149 62.9993,76.5009 C62.9993,76.0849 63.1673,75.7099 63.4393,75.4389 L64.0413,74.0539 C64.2153,73.6539 64.7843,73.6539 64.9583,74.0539 L65.5603,75.4389 Z"/>
    <path fill="#75C7F7" d="M64.4998,78.0004 C63.6718,78.0004 62.9998,77.3284 62.9998,76.5004 C62.9998,75.6714 63.6718,75.0004 64.4998,75.0004 C65.3288,75.0004 65.9998,75.6714 65.9998,76.5004 C65.9998,77.3284 65.3288,78.0004 64.4998,78.0004"/>
    <path fill="#FFF" d="M82.7683,21.6537 C82.4283,21.8137 82.0583,21.8937 81.7083,21.8937 C80.7683,21.8937 79.8693,21.3637 79.4493,20.4537 C78.8593,19.1937 79.4093,17.7137 80.6593,17.1237 C80.9983,16.9637 81.3593,16.8937 81.7083,16.8937 C82.6493,16.8937 83.5583,17.4237 83.9783,18.3337 C84.1383,18.6737 84.2083,19.0337 84.2083,19.3827 C84.2083,20.3237 83.6783,21.2337 82.7683,21.6537 M96.8083,31.6637 L89.9893,17.0337 C89.7583,16.5337 89.3293,16.1537 88.8083,15.9837 L80.3293,13.1837 C79.3293,12.8537 78.2393,13.3637 77.8483,14.3427 L74.5393,22.6327 C74.3383,23.1437 74.3483,23.7237 74.5883,24.2237 L81.4093,38.8427 C81.8693,39.8427 83.0583,40.2837 84.0583,39.8137 L95.8483,34.3137 C96.8483,33.8537 97.2793,32.6637 96.8083,31.6637"/>
    <path fill="#D3EDFF" d="M81.2898,18.9857 C81.1018,18.9857 80.9218,18.8797 80.8368,18.6967 L74.0748,4.1957 C73.9578,3.9457 74.0658,3.6477 74.3168,3.5317 C74.5668,3.4147 74.8648,3.5227 74.9808,3.7737 L81.7428,18.2747 C81.8598,18.5247 81.7518,18.8227 81.5008,18.9387 C81.4328,18.9707 81.3608,18.9857 81.2898,18.9857"/>
    <path fill="#A3ABB0" d="M86.1306,31.9701 C86.2786,32.0831 86.4416,32.1571 86.6136,32.1901 C86.7866,32.2241 86.9736,32.2221 87.1686,32.1851 C87.3646,32.1491 87.5566,32.0871 87.7436,32.0001 C87.8716,31.9411 88.0026,31.8661 88.1376,31.7791 C88.2726,31.6891 88.3896,31.5851 88.4886,31.4651 C88.5876,31.3461 88.6536,31.2141 88.6896,31.0681 C88.7256,30.9231 88.7046,30.7691 88.6286,30.6061 C88.5466,30.4311 88.4236,30.3151 88.2616,30.2581 C88.0996,30.2011 87.9096,30.1791 87.6946,30.1911 C87.4806,30.2031 87.2446,30.2361 86.9896,30.2881 C86.7346,30.3401 86.4746,30.3891 86.2076,30.4321 C85.9396,30.4851 85.6676,30.5201 85.3976,30.5391 C85.1266,30.5601 84.8676,30.5421 84.6226,30.4881 C84.3766,30.4331 84.1496,30.3271 83.9406,30.1711 C83.7316,30.0151 83.5586,29.7881 83.4196,29.4921 C83.2656,29.1601 83.2006,28.8391 83.2286,28.5281 C83.2566,28.2171 83.3476,27.9271 83.5006,27.6561 C83.6536,27.3861 83.8586,27.1441 84.1116,26.9301 C84.3646,26.7171 84.6366,26.5421 84.9276,26.4081 C85.2656,26.2491 85.6076,26.1351 85.9536,26.0661 C86.3006,25.9961 86.6326,25.9901 86.9536,26.0461 C87.2746,26.1031 87.5676,26.2291 87.8316,26.4251 C88.0966,26.6211 88.3166,26.9081 88.4896,27.2831 L87.1126,27.9251 C87.0106,27.7381 86.8956,27.5961 86.7676,27.5011 C86.6386,27.4081 86.4996,27.3501 86.3506,27.3311 C86.2016,27.3131 86.0466,27.3231 85.8856,27.3611 C85.7226,27.4011 85.5546,27.4601 85.3786,27.5421 C85.2636,27.5961 85.1536,27.6611 85.0516,27.7391 C84.9466,27.8171 84.8626,27.9081 84.7976,28.0111 C84.7326,28.1161 84.6916,28.2271 84.6716,28.3461 C84.6536,28.4651 84.6776,28.5931 84.7416,28.7321 C84.8016,28.8601 84.8726,28.9511 84.9586,29.0061 C85.0426,29.0631 85.1726,29.0911 85.3456,29.0911 C85.5186,29.0911 85.7456,29.0661 86.0266,29.0151 C86.3096,28.9661 86.6766,28.8971 87.1286,28.8111 C87.2616,28.7801 87.4486,28.7441 87.6926,28.7081 C87.9376,28.6711 88.1966,28.6731 88.4736,28.7141 C88.7496,28.7541 89.0196,28.8551 89.2816,29.0151 C89.5446,29.1761 89.7606,29.4391 89.9296,29.8001 C90.0686,30.0971 90.1386,30.3981 90.1426,30.7051 C90.1466,31.0131 90.0766,31.3111 89.9366,31.6011 C89.7956,31.8921 89.5806,32.1661 89.2946,32.4251 C89.0066,32.6841 88.6426,32.9161 88.2016,33.1221 C87.8446,33.2881 87.4786,33.4061 87.1026,33.4741 C86.7266,33.5431 86.3656,33.5431 86.0226,33.4761 C85.6776,33.4081 85.3616,33.2651 85.0756,33.0441 C84.7896,32.8261 84.5566,32.5161 84.3766,32.1141 L85.7546,31.4711 C85.8566,31.6891 85.9816,31.8551 86.1306,31.9701"/>
  </g>
</svg>
